:SAMPLES-PER-SECOND 30
:FULLY-SPECIFIED
:DEGREES
234
root  -9.1031 34.9038 -17.0313 -170.664 -0.36879 179.167
RightUpLeg  -6.15587 -18.4574 4.55936
RightLeg  -0.334577 3.02883 -0.21266
RightFoot  4.1211 0.0114705 0.344775
RightToes  -21.5301 -0.0907335 -0.18492
Spine  -3.53091 1.10207 -1.64628
Spine1  -7.10299 2.17435 -2.60371
HEad  -62.9423 -2.06728 11.0019
LeftShoulder1  -1.94126e-019 -3.10601e-018 -2.51263e-017
LeftArm  -8.97955 24.6213 -76.0027
LeftForeArm  35.3423 -15.4973 -2.67319
LeftHand  -0.313928 -0.7205 5.96136
RightShoulder  -4.96962e-017 0 -2.36833e-017
RightArm  -71.2502 8.42627 3.83868
RightForeArm  168.965 43.9337 170.103
RightHand  -0.384985 -1.10181 -10.353
LeftUpLeg  -6.81596 -2.75129 -1.97123
LeftLeg  2.01303 14.4292 -0.416218
LeftFoot  5.13135 -0.0574317 1.46502
LeftToes  -12.146 1.48347e-006 1.01831e-007
235
root  -9.11806 34.9042 -17.012 -170.67 -0.355148 179.186
RightUpLeg  -6.19523 -18.4263 4.56192
RightLeg  -0.314875 3.00341 -0.207386
RightFoot  4.15521 0.0121583 0.342645
RightToes  -21.6086 -0.0907912 -0.185862
Spine  -3.5305 1.11383 -1.61351
Spine1  -7.10488 2.19793 -2.54501
HEad  -62.8596 -2.20641 11.0239
LeftShoulder1  -1.94126e-019 -3.10601e-018 -2.51263e-017
LeftArm  -8.9978 24.6808 -76.0874
LeftForeArm  35.4606 -15.4948 -2.6712
LeftHand  -0.313331 -0.712873 5.99845
RightShoulder  -4.96962e-017 0 -2.36833e-017
RightArm  -71.3687 8.27715 4.19018
RightForeArm  168.879 43.8114 170.137
RightHand  -0.38416 -1.08622 -10.3418
LeftUpLeg  -6.80024 -2.53448 -1.99446
LeftLeg  1.92318 14.2613 -0.43362
LeftFoot  5.12232 -0.0556791 1.44666
LeftToes  -12.0941 1.48347e-006 1.01831e-007
236
root  -9.13258 34.9045 -16.998 -170.679 -0.333344 179.203
RightUpLeg  -6.23103 -18.3804 4.55486
RightLeg  -0.273564 2.97083 -0.200571
RightFoot  4.15606 0.0127854 0.341262
RightToes  -21.6365 -0.0907935 -0.186761
Spine  -3.53079 1.13243 -1.58244
Spine1  -7.10531 2.23625 -2.4889
HEad  -62.8602 -2.20105 11.0216
LeftShoulder1  -1.94126e-019 -3.10601e-018 -2.51263e-017
LeftArm  -9.00188 24.7716 -76.1856
LeftForeArm  35.2038 -15.6512 -2.69427
LeftHand  -0.312771 -0.650626 5.98358
RightShoulder  -4.96962e-017 0 -2.36833e-017
RightArm  -71.4847 8.21261 4.40959
RightForeArm  168.834 43.7342 170.159
RightHand  -0.381428 -1.09722 -10.3767
LeftUpLeg  -6.78613 -2.34374 -2.01058
LeftLeg  1.87797 14.1029 -0.439926
LeftFoot  5.11233 -0.0539184 1.42885
LeftToes  -12.101 1.48347e-006 1.01831e-007
237
root  -9.15708 34.9047 -16.9838 -170.712 -0.367462 179.217
RightUpLeg  -6.25404 -18.4093 4.52704
RightLeg  -0.199517 2.97599 -0.201871
RightFoot  4.13601 0.0133657 0.340334
RightToes  -21.696 -0.0907305 -0.18756
Spine  -3.53134 1.14093 -1.5485
Spine1  -7.09005 2.25598 -2.42193
HEad  -62.8285 -2.07347 10.9503
LeftShoulder1  -1.94126e-019 -3.10601e-018 -2.51263e-017
LeftArm  -8.8875 24.8799 -76.2907
LeftForeArm  35.1129 -15.8135 -2.71515
LeftHand  -0.315327 -0.728304 5.79878
RightShoulder  -4.96962e-017 0 -2.36833e-017
RightArm  -71.5926 8.17797 4.65071
RightForeArm  168.756 43.6696 170.176
RightHand  -0.380565 -1.15909 -10.3654
LeftUpLeg  -6.79329 -2.35249 -2.02868
LeftLeg  1.92383 14.065 -0.427616
LeftFoot  5.03522 -0.051771 1.40553
LeftToes  -12.1863 1.48347e-006 1.01831e-007
238
root  -9.18397 34.9049 -16.9767 -170.736 -0.424057 179.229
RightUpLeg  -6.24971 -18.3593 4.49789
RightLeg  -0.174247 2.84882 -0.191993
RightFoot  4.12791 0.0144909 0.331313
RightToes  -21.718 -0.0905923 -0.188207
Spine  -3.53172 1.14595 -1.52711
Spine1  -7.08339 2.26792 -2.37787
HEad  -62.8547 -1.97074 10.9639
LeftShoulder1  -1.94126e-019 -3.10601e-018 -2.51263e-017
LeftArm  -8.7471 24.9579 -76.4382
LeftForeArm  35.1763 -15.9237 -2.73043
LeftHand  -0.312659 -0.757274 5.88367
RightShoulder  -4.96962e-017 0 -2.36833e-017
RightArm  -71.609 8.13596 4.79583
RightForeArm  168.788 43.6539 170.183
RightHand  -0.380516 -1.16392 -10.3754
LeftUpLeg  -6.80514 -2.61417 -2.04799
LeftLeg  1.96991 14.3201 -0.42381
LeftFoot  4.96353 -0.0514443 1.41084
LeftToes  -12.0932 1.48347e-006 1.01831e-007
239
root  -9.21666 34.9051 -16.9713 -170.758 -0.42543 179.264
RightUpLeg  -6.25497 -18.1984 4.47384
RightLeg  -0.131146 2.66855 -0.177837
RightFoot  4.11606 0.0158385 0.318715
RightToes  -21.686 -0.0903692 -0.188647
Spine  -3.53147 1.17288 -1.50928
Spine1  -7.09471 2.32341 -2.34498
HEad  -62.8161 -1.86329 11.0423
LeftShoulder1  -1.94126e-019 -3.10601e-018 -2.51263e-017
LeftArm  -8.64525 25.0229 -76.5716
LeftForeArm  35.1583 -16.0472 -2.74556
LeftHand  -0.312422 -0.697214 5.78003
RightShoulder  -4.96962e-017 0 -2.36833e-017
RightArm  -71.4298 8.04735 4.88579
RightForeArm  169.797 43.6836 170.237
RightHand  -0.401031 -0.946722 -10.4281
LeftUpLeg  -6.79011 -2.74674 -2.07029
LeftLeg  1.97595 14.4329 -0.425567
LeftFoot  4.89254 -0.050254 1.40289
LeftToes  -11.8956 1.48347e-006 1.01831e-007
240
root  -9.24383 34.9053 -16.9674 -170.77 -0.413483 179.299
RightUpLeg  -6.2516 -18.1093 4.46312
RightLeg  -0.12625 2.57919 -0.171669
RightFoot  4.14412 0.0166157 0.313771
RightToes  -21.7289 -0.0900514 -0.188824
Spine  -3.53016 1.20296 -1.50021
Spine1  -7.10165 2.38385 -2.33249
HEad  -62.8001 -1.81153 11.1387
LeftShoulder1  -1.94126e-019 -3.10601e-018 -2.51263e-017
LeftArm  -8.66813 25.026 -76.6696
LeftForeArm  35.0793 -16.0116 -2.73613
LeftHand  -0.310564 -0.717545 5.78526
RightShoulder  -4.96962e-017 0 -2.36833e-017
RightArm  -71.4005 7.92481 4.89073
RightForeArm  169.842 43.7119 170.231
RightHand  -0.404837 -0.843002 -10.2982
LeftUpLeg  -6.76809 -2.7169 -2.08221
LeftLeg  1.94666 14.4102 -0.432204
LeftFoot  4.87221 -0.049093 1.39537
LeftToes  -11.8293 1.48347e-006 1.01831e-007
241
root  -9.27118 34.9054 -16.9675 -170.789 -0.436584 179.331
RightUpLeg  -6.24321 -18.0215 4.44753
RightLeg  -0.0941162 2.45671 -0.162137
RightFoot  4.13484 0.0176191 0.30501
RightToes  -21.5976 -0.0896291 -0.188685
Spine  -3.52629 1.21698 -1.49615
Spine1  -7.09466 2.41223 -2.32738
HEad  -62.7843 -1.74272 11.1261
LeftShoulder1  -1.94126e-019 -3.10601e-018 -2.51263e-017
LeftArm  -8.67625 25.0306 -76.7531
LeftForeArm  35.0102 -15.9748 -2.72733
LeftHand  -0.307984 -0.715 5.82077
RightShoulder  -4.96962e-017 0 -2.36833e-017
RightArm  -71.3741 7.81033 4.85851
RightForeArm  169.88 43.7618 170.217
RightHand  -0.400416 -0.852485 -10.2053
LeftUpLeg  -6.75066 -2.6555 -2.0926
LeftLeg  1.94485 14.326 -0.430183
LeftFoot  4.86964 -0.047883 1.38689
LeftToes  -11.8625 1.48347e-006 1.01831e-007
242
root  -9.29829 34.9054 -16.9736 -170.812 -0.482651 179.363
RightUpLeg  -6.22969 -17.9544 4.43271
RightLeg  -0.0480584 2.3312 -0.15197
RightFoot  4.12279 0.0185884 0.296057
RightToes  -21.4245 -0.0890923 -0.188176
Spine  -3.51888 1.2147 -1.49697
Spine1  -7.08019 2.40822 -2.32873
HEad  -62.8796 -1.78007 11.2201
LeftShoulder1  -1.94126e-019 -3.10601e-018 -2.51263e-017
LeftArm  -8.65562 25.0329 -76.81
LeftForeArm  35.0108 -15.9273 -2.71945
LeftHand  -0.305734 -0.720782 5.83922
RightShoulder  -4.96962e-017 0 -2.36833e-017
RightArm  -71.3553 7.72046 4.83679
RightForeArm  169.753 43.8238 170.189
RightHand  -0.396318 -0.892266 -10.1854
LeftUpLeg  -6.73459 -2.73841 -2.10115
LeftLeg  1.97447 14.3604 -0.423844
LeftFoot  4.84909 -0.0472911 1.38764
LeftToes  -11.6966 1.48347e-006 1.01831e-007
243
root  -9.32443 34.9052 -16.9837 -170.823 -0.521332 179.394
RightUpLeg  -6.20051 -17.872 4.42152
RightLeg  -0.0529532 2.19172 -0.143079
RightFoot  4.146 0.0194634 0.287678
RightToes  -21.2377 -0.0884314 -0.186699
Spine  -3.51586 1.20344 -1.50206
Spine1  -7.07427 2.38556 -2.33786
HEad  -62.862 -1.81972 11.2206
LeftShoulder1  -1.94126e-019 -3.10601e-018 -2.51263e-017
LeftArm  -8.62861 25.051 -76.8249
LeftForeArm  34.9918 -15.8683 -2.70889
LeftHand  -0.304425 -0.750805 5.81517
RightShoulder  -4.96962e-017 0 -2.36833e-017
RightArm  -71.3692 7.71791 4.89331
RightForeArm  169.526 43.8898 170.154
RightHand  -0.387633 -1.00042 -10.1946
LeftUpLeg  -6.71406 -2.838 -2.10947
LeftLeg  1.9734 14.4366 -0.426309
LeftFoot  4.84701 -0.0469546 1.39183
LeftToes  -11.4626 1.48347e-006 1.01831e-007
